<svg width="48" height="48" xmlns="http://www.w3.org/2000/svg">
    <path
        d="M12 28v4.25M36 28v8h-6m-18-3.75V36h18m-18-3.75h9m9 0V36m0-3.75V28m0 4.25h-9m0 0V28"
        stroke-width="2"
        stroke-linecap="round"
    />
    <path
        d="M12.333 24a3.33 3.33 0 002.917-1.728A3.33 3.33 0 0018.167 24a3.33 3.33 0 002.916-1.728A3.33 3.33 0 0024 24a3.33 3.33 0 002.917-1.728A3.33 3.33 0 0029.833 24a3.33 3.33 0 002.917-1.728A3.33 3.33 0 0035.667 24 3.343 3.343 0 0039 20.647L35.667 12H12.333L9 20.647A3.343 3.343 0 0012.333 24z"
        stroke-width="2"
        stroke-linejoin="round"
    />
</svg>