<svg width="48" height="48" xmlns="http://www.w3.org/2000/svg">
    <path d="M30 24l.447.894.553-.276V24h-1zm-12 0h-1v.618l.553.276L18 24zm10.447 4.106a1 1 0 10-.894 1.788l.894-1.788zm-8.894-2.212a1 1 0 10.894-1.788l-.894 1.788zm-5.975 6.317l-.447-.894.447.894zm20.844 0l.448-.894-.448.894zM29 18v6h2v-6h-2zm-10 6v-6h-2v6h2zm10.553-.894l-16.422 8.21.894 1.79 16.422-8.212-.894-1.788zM14.473 37h19.055v-2H14.472v2zm20.397-5.683l-6.423-3.211-.894 1.788 6.422 3.212.895-1.79zm-17.317-6.423l2 1 .894-1.788-2-1-.894 1.788zm-4.423 6.423C10.3 32.733 11.306 37 14.473 37v-2c-1.055 0-1.39-1.422-.447-1.894l-.895-1.79zM24 13a5 5 0 015 5h2a7 7 0 00-7-7v2zm9.528 24c3.166 0 4.173-4.267 1.342-5.683l-.895 1.789c.944.471.608 1.894-.447 1.894v2zM24 11a7 7 0 00-7 7h2a5 5 0 015-5v-2z" />
</svg>